<mxfile host="app.diagrams.net" agent="Mozilla/5.0 (X11; Linux x86_64) AppleWebKit/537.36 (KHTML, like Gecko) Chrome/135.0.0.0 Safari/537.36" version="27.0.6">
  <diagram name="PÃ¡gina-1" id="i60V8eMSksGrL9EIpr1r">
    <mxGraphModel dx="793" dy="411" grid="0" gridSize="10" guides="1" tooltips="1" connect="1" arrows="1" fold="1" page="1" pageScale="1" pageWidth="827" pageHeight="1169" math="0" shadow="0">
      <root>
        <mxCell id="0" />
        <mxCell id="1" parent="0" />
        <mxCell id="U8FTYkWrthfQKXrt1uKZ-69" value="" style="rounded=1;whiteSpace=wrap;html=1;fillColor=#f5f5f5;fontColor=#333333;strokeColor=#666666;opacity=80;" vertex="1" parent="1">
          <mxGeometry x="30" y="841.16" width="681" height="97.84" as="geometry" />
        </mxCell>
        <mxCell id="U8FTYkWrthfQKXrt1uKZ-55" value="" style="rounded=1;whiteSpace=wrap;html=1;fillColor=#f5f5f5;fontColor=#333333;strokeColor=#666666;opacity=80;" vertex="1" parent="1">
          <mxGeometry x="120" y="531" width="440" height="245" as="geometry" />
        </mxCell>
        <mxCell id="U8FTYkWrthfQKXrt1uKZ-20" value="" style="rounded=1;whiteSpace=wrap;html=1;fillColor=#f5f5f5;fontColor=#333333;strokeColor=#666666;opacity=80;" vertex="1" parent="1">
          <mxGeometry x="140" y="370" width="400" height="140" as="geometry" />
        </mxCell>
        <mxCell id="U8FTYkWrthfQKXrt1uKZ-4" style="edgeStyle=orthogonalEdgeStyle;rounded=0;orthogonalLoop=1;jettySize=auto;html=1;exitX=1;exitY=0.5;exitDx=0;exitDy=0;entryX=0;entryY=0.5;entryDx=0;entryDy=0;" edge="1" parent="1">
          <mxGeometry relative="1" as="geometry">
            <mxPoint x="300" y="410" as="targetPoint" />
            <mxPoint x="220" y="410" as="sourcePoint" />
          </mxGeometry>
        </mxCell>
        <mxCell id="U8FTYkWrthfQKXrt1uKZ-2" value="" style="rhombus;whiteSpace=wrap;html=1;" vertex="1" parent="1">
          <mxGeometry x="246" y="400" width="20" height="20" as="geometry" />
        </mxCell>
        <mxCell id="U8FTYkWrthfQKXrt1uKZ-14" style="edgeStyle=orthogonalEdgeStyle;rounded=0;orthogonalLoop=1;jettySize=auto;html=1;exitX=1;exitY=0.25;exitDx=0;exitDy=0;" edge="1" parent="1" source="U8FTYkWrthfQKXrt1uKZ-5">
          <mxGeometry relative="1" as="geometry">
            <mxPoint x="470" y="395.0769230769231" as="targetPoint" />
          </mxGeometry>
        </mxCell>
        <mxCell id="U8FTYkWrthfQKXrt1uKZ-18" style="edgeStyle=orthogonalEdgeStyle;rounded=0;orthogonalLoop=1;jettySize=auto;html=1;entryX=0.5;entryY=0;entryDx=0;entryDy=0;" edge="1" parent="1" source="U8FTYkWrthfQKXrt1uKZ-5">
          <mxGeometry relative="1" as="geometry">
            <mxPoint x="360" y="470" as="targetPoint" />
          </mxGeometry>
        </mxCell>
        <mxCell id="U8FTYkWrthfQKXrt1uKZ-5" value="Pleias-RAG" style="rounded=1;whiteSpace=wrap;html=1;fillColor=#dae8fc;strokeColor=#6c8ebf;" vertex="1" parent="1">
          <mxGeometry x="300" y="380" width="120" height="60" as="geometry" />
        </mxCell>
        <mxCell id="U8FTYkWrthfQKXrt1uKZ-8" value="" style="sketch=0;outlineConnect=0;fontColor=#232F3E;gradientColor=none;fillColor=#232F3D;strokeColor=none;dashed=0;verticalLabelPosition=bottom;verticalAlign=top;align=center;html=1;fontSize=12;fontStyle=0;aspect=fixed;pointerEvents=1;shape=mxgraph.aws4.documents3;" vertex="1" parent="1">
          <mxGeometry x="473" y="380" width="47" height="64.32" as="geometry" />
        </mxCell>
        <mxCell id="U8FTYkWrthfQKXrt1uKZ-27" style="edgeStyle=orthogonalEdgeStyle;rounded=0;orthogonalLoop=1;jettySize=auto;html=1;exitX=1;exitY=0.5;exitDx=0;exitDy=0;" edge="1" parent="1" source="U8FTYkWrthfQKXrt1uKZ-36" target="U8FTYkWrthfQKXrt1uKZ-25">
          <mxGeometry relative="1" as="geometry">
            <mxPoint x="394.999999999999" y="485" as="sourcePoint" />
          </mxGeometry>
        </mxCell>
        <mxCell id="U8FTYkWrthfQKXrt1uKZ-15" style="edgeStyle=orthogonalEdgeStyle;rounded=0;orthogonalLoop=1;jettySize=auto;html=1;" edge="1" parent="1">
          <mxGeometry relative="1" as="geometry">
            <mxPoint x="420" y="424.81" as="targetPoint" />
            <mxPoint x="470" y="424.81" as="sourcePoint" />
            <Array as="points">
              <mxPoint x="470" y="424.81" />
              <mxPoint x="470" y="424.81" />
            </Array>
          </mxGeometry>
        </mxCell>
        <mxCell id="U8FTYkWrthfQKXrt1uKZ-21" value="" style="rhombus;whiteSpace=wrap;html=1;" vertex="1" parent="1">
          <mxGeometry x="153.5" y="474" width="14" height="14" as="geometry" />
        </mxCell>
        <mxCell id="U8FTYkWrthfQKXrt1uKZ-22" value="&lt;font style=&quot;font-size: 9px;&quot;&gt;INPUT/OUTPUT&lt;/font&gt;" style="text;html=1;align=center;verticalAlign=middle;whiteSpace=wrap;rounded=0;" vertex="1" parent="1">
          <mxGeometry x="160" y="448" width="100" height="30" as="geometry" />
        </mxCell>
        <mxCell id="U8FTYkWrthfQKXrt1uKZ-24" value="&lt;font style=&quot;font-size: 9px;&quot;&gt;PROCESS&lt;/font&gt;" style="text;html=1;align=center;verticalAlign=middle;whiteSpace=wrap;rounded=0;" vertex="1" parent="1">
          <mxGeometry x="167.5" y="465" width="62" height="30" as="geometry" />
        </mxCell>
        <mxCell id="U8FTYkWrthfQKXrt1uKZ-25" value="" style="sketch=0;outlineConnect=0;fontColor=#232F3E;gradientColor=none;fillColor=#232F3D;strokeColor=none;dashed=0;verticalLabelPosition=bottom;verticalAlign=top;align=center;html=1;fontSize=12;fontStyle=0;aspect=fixed;pointerEvents=1;shape=mxgraph.aws4.document;" vertex="1" parent="1">
          <mxGeometry x="432" y="461.7" width="34.06" height="46.6" as="geometry" />
        </mxCell>
        <mxCell id="U8FTYkWrthfQKXrt1uKZ-29" value="Source" style="rounded=1;whiteSpace=wrap;html=1;fillColor=#dae8fc;strokeColor=#6c8ebf;opacity=70;" vertex="1" parent="1">
          <mxGeometry x="140" y="581" width="120" height="60" as="geometry" />
        </mxCell>
        <mxCell id="U8FTYkWrthfQKXrt1uKZ-30" value="Chunk" style="rounded=1;whiteSpace=wrap;html=1;fillColor=#dae8fc;strokeColor=#6c8ebf;opacity=70;" vertex="1" parent="1">
          <mxGeometry x="266" y="581" width="120" height="16" as="geometry" />
        </mxCell>
        <mxCell id="U8FTYkWrthfQKXrt1uKZ-37" style="edgeStyle=orthogonalEdgeStyle;rounded=0;orthogonalLoop=1;jettySize=auto;html=1;" edge="1" parent="1">
          <mxGeometry relative="1" as="geometry">
            <mxPoint x="417" y="611" as="targetPoint" />
            <mxPoint x="390" y="611" as="sourcePoint" />
          </mxGeometry>
        </mxCell>
        <mxCell id="U8FTYkWrthfQKXrt1uKZ-31" value="Chunk" style="rounded=1;whiteSpace=wrap;html=1;fillColor=#dae8fc;strokeColor=#6c8ebf;opacity=70;" vertex="1" parent="1">
          <mxGeometry x="266" y="603" width="120" height="16" as="geometry" />
        </mxCell>
        <mxCell id="U8FTYkWrthfQKXrt1uKZ-32" value="Chunk" style="rounded=1;whiteSpace=wrap;html=1;fillColor=#dae8fc;strokeColor=#6c8ebf;opacity=70;" vertex="1" parent="1">
          <mxGeometry x="266" y="625" width="120" height="16" as="geometry" />
        </mxCell>
        <mxCell id="U8FTYkWrthfQKXrt1uKZ-39" style="edgeStyle=orthogonalEdgeStyle;rounded=0;orthogonalLoop=1;jettySize=auto;html=1;" edge="1" parent="1">
          <mxGeometry relative="1" as="geometry">
            <mxPoint x="413" y="563" as="targetPoint" />
            <mxPoint x="263" y="563" as="sourcePoint" />
          </mxGeometry>
        </mxCell>
        <mxCell id="U8FTYkWrthfQKXrt1uKZ-33" value="&lt;span style=&quot;color: rgb(0, 0, 0); font-family: Helvetica; font-size: 12px; font-style: normal; font-variant-ligatures: normal; font-variant-caps: normal; font-weight: 400; letter-spacing: normal; orphans: 2; text-align: center; text-indent: 0px; text-transform: none; widows: 2; word-spacing: 0px; -webkit-text-stroke-width: 0px; white-space: normal; text-decoration-thickness: initial; text-decoration-style: initial; text-decoration-color: initial; float: none; display: inline !important;&quot;&gt;QUERY&lt;/span&gt;" style="rounded=1;whiteSpace=wrap;html=1;fillColor=#fff2cc;strokeColor=#d6b656;opacity=70;" vertex="1" parent="1">
          <mxGeometry x="140.5" y="553" width="116" height="20" as="geometry" />
        </mxCell>
        <mxCell id="U8FTYkWrthfQKXrt1uKZ-34" value="&lt;span style=&quot;color: rgb(0, 0, 0); font-family: Helvetica; font-size: 12px; font-style: normal; font-variant-ligatures: normal; font-variant-caps: normal; font-weight: 400; letter-spacing: normal; orphans: 2; text-align: center; text-indent: 0px; text-transform: none; widows: 2; word-spacing: 0px; -webkit-text-stroke-width: 0px; white-space: normal; text-decoration-thickness: initial; text-decoration-style: initial; text-decoration-color: initial; float: none; display: inline !important;&quot;&gt;QUERY&lt;/span&gt;" style="rounded=1;whiteSpace=wrap;html=1;fillColor=#fff2cc;strokeColor=#d6b656;opacity=70;" vertex="1" parent="1">
          <mxGeometry x="145" y="395.5" width="75" height="29" as="geometry" />
        </mxCell>
        <mxCell id="U8FTYkWrthfQKXrt1uKZ-35" value="" style="rounded=1;whiteSpace=wrap;html=1;fillColor=#fff2cc;strokeColor=#d6b656;opacity=70;" vertex="1" parent="1">
          <mxGeometry x="152.5" y="460.82" width="15" height="7" as="geometry" />
        </mxCell>
        <mxCell id="U8FTYkWrthfQKXrt1uKZ-36" value="ANSWER" style="rounded=1;whiteSpace=wrap;html=1;fillColor=#fff2cc;strokeColor=#d6b656;opacity=70;" vertex="1" parent="1">
          <mxGeometry x="318.5" y="470.5" width="83" height="29" as="geometry" />
        </mxCell>
        <mxCell id="U8FTYkWrthfQKXrt1uKZ-38" value="INFO" style="rounded=1;whiteSpace=wrap;html=1;fillColor=#d5e8d4;strokeColor=#82b366;opacity=50;" vertex="1" parent="1">
          <mxGeometry x="420" y="603" width="120" height="16" as="geometry" />
        </mxCell>
        <mxCell id="U8FTYkWrthfQKXrt1uKZ-43" value="" style="edgeStyle=orthogonalEdgeStyle;rounded=0;orthogonalLoop=1;jettySize=auto;html=1;" edge="1" parent="1">
          <mxGeometry relative="1" as="geometry">
            <mxPoint x="479" y="575" as="sourcePoint" />
            <mxPoint x="479" y="599" as="targetPoint" />
          </mxGeometry>
        </mxCell>
        <mxCell id="U8FTYkWrthfQKXrt1uKZ-40" value="&lt;span style=&quot;color: rgb(0, 0, 0); font-family: Helvetica; font-size: 12px; font-style: normal; font-variant-ligatures: normal; font-variant-caps: normal; font-weight: 400; letter-spacing: normal; orphans: 2; text-align: center; text-indent: 0px; text-transform: none; widows: 2; word-spacing: 0px; -webkit-text-stroke-width: 0px; white-space: normal; text-decoration-thickness: initial; text-decoration-style: initial; text-decoration-color: initial; float: none; display: inline !important;&quot;&gt;QUERY ++&lt;/span&gt;" style="rounded=1;whiteSpace=wrap;html=1;fillColor=#fff2cc;strokeColor=#d6b656;opacity=70;" vertex="1" parent="1">
          <mxGeometry x="422" y="555" width="116" height="16" as="geometry" />
        </mxCell>
        <mxCell id="U8FTYkWrthfQKXrt1uKZ-44" value="Source" style="rounded=1;whiteSpace=wrap;html=1;fillColor=#dae8fc;strokeColor=#6c8ebf;opacity=70;" vertex="1" parent="1">
          <mxGeometry x="140.5" y="696" width="120" height="60" as="geometry" />
        </mxCell>
        <mxCell id="U8FTYkWrthfQKXrt1uKZ-49" style="edgeStyle=orthogonalEdgeStyle;rounded=0;orthogonalLoop=1;jettySize=auto;html=1;" edge="1" parent="1">
          <mxGeometry relative="1" as="geometry">
            <mxPoint x="413" y="718" as="targetPoint" />
            <mxPoint x="295.5" y="717.83" as="sourcePoint" />
            <Array as="points">
              <mxPoint x="279.5" y="717.83" />
            </Array>
          </mxGeometry>
        </mxCell>
        <mxCell id="U8FTYkWrthfQKXrt1uKZ-50" value="&lt;span style=&quot;color: rgb(0, 0, 0); font-family: Helvetica; font-size: 12px; font-style: normal; font-variant-ligatures: normal; font-variant-caps: normal; font-weight: 400; letter-spacing: normal; orphans: 2; text-align: center; text-indent: 0px; text-transform: none; widows: 2; word-spacing: 0px; -webkit-text-stroke-width: 0px; white-space: normal; text-decoration-thickness: initial; text-decoration-style: initial; text-decoration-color: initial; float: none; display: inline !important;&quot;&gt;QUERY&lt;/span&gt;" style="rounded=1;whiteSpace=wrap;html=1;fillColor=#fff2cc;strokeColor=#d6b656;opacity=70;" vertex="1" parent="1">
          <mxGeometry x="141" y="668" width="116" height="20" as="geometry" />
        </mxCell>
        <mxCell id="U8FTYkWrthfQKXrt1uKZ-53" value="&lt;span style=&quot;color: rgb(0, 0, 0); font-family: Helvetica; font-size: 12px; font-style: normal; font-variant-ligatures: normal; font-variant-caps: normal; font-weight: 400; letter-spacing: normal; orphans: 2; text-align: center; text-indent: 0px; text-transform: none; widows: 2; word-spacing: 0px; -webkit-text-stroke-width: 0px; white-space: normal; text-decoration-thickness: initial; text-decoration-style: initial; text-decoration-color: initial; float: none; display: inline !important;&quot;&gt;QUERY ++&lt;/span&gt;" style="rounded=1;whiteSpace=wrap;html=1;fillColor=#fff2cc;strokeColor=#d6b656;opacity=70;" vertex="1" parent="1">
          <mxGeometry x="422" y="688" width="120" height="60" as="geometry" />
        </mxCell>
        <mxCell id="U8FTYkWrthfQKXrt1uKZ-54" value="INFO" style="rounded=1;whiteSpace=wrap;html=1;fillColor=#d5e8d4;strokeColor=#82b366;opacity=70;" vertex="1" parent="1">
          <mxGeometry x="422" y="726" width="120" height="16" as="geometry" />
        </mxCell>
        <mxCell id="U8FTYkWrthfQKXrt1uKZ-56" value="&lt;span style=&quot;color: rgb(0, 0, 0); font-family: Helvetica; font-size: 12px; font-style: normal; font-variant-ligatures: normal; font-variant-caps: normal; font-weight: 400; letter-spacing: normal; orphans: 2; text-align: center; text-indent: 0px; text-transform: none; widows: 2; word-spacing: 0px; -webkit-text-stroke-width: 0px; white-space: normal; text-decoration-thickness: initial; text-decoration-style: initial; text-decoration-color: initial; float: none; display: inline !important;&quot;&gt;QUERY&lt;/span&gt;" style="rounded=1;whiteSpace=wrap;html=1;fillColor=#fff2cc;strokeColor=#d6b656;opacity=70;" vertex="1" parent="1">
          <mxGeometry x="54" y="876.16" width="116" height="20" as="geometry" />
        </mxCell>
        <mxCell id="U8FTYkWrthfQKXrt1uKZ-57" value="" style="shape=datastore;whiteSpace=wrap;html=1;" vertex="1" parent="1">
          <mxGeometry x="245" y="856.16" width="60" height="60" as="geometry" />
        </mxCell>
        <mxCell id="U8FTYkWrthfQKXrt1uKZ-58" value="" style="sketch=0;outlineConnect=0;fontColor=#232F3E;gradientColor=none;fillColor=#232F3D;strokeColor=none;dashed=0;verticalLabelPosition=bottom;verticalAlign=top;align=center;html=1;fontSize=12;fontStyle=0;aspect=fixed;pointerEvents=1;shape=mxgraph.aws4.documents3;" vertex="1" parent="1">
          <mxGeometry x="371" y="854" width="47" height="64.32" as="geometry" />
        </mxCell>
        <mxCell id="U8FTYkWrthfQKXrt1uKZ-60" value="" style="sketch=0;outlineConnect=0;fontColor=#232F3E;gradientColor=none;fillColor=#232F3D;strokeColor=none;dashed=0;verticalLabelPosition=bottom;verticalAlign=top;align=center;html=1;fontSize=12;fontStyle=0;aspect=fixed;pointerEvents=1;shape=mxgraph.aws4.document;" vertex="1" parent="1">
          <mxGeometry x="489.00000000000006" y="859.66" width="38.74" height="53" as="geometry" />
        </mxCell>
        <mxCell id="U8FTYkWrthfQKXrt1uKZ-64" style="edgeStyle=orthogonalEdgeStyle;rounded=0;orthogonalLoop=1;jettySize=auto;html=1;" edge="1" parent="1">
          <mxGeometry relative="1" as="geometry">
            <mxPoint x="182" y="886.17" as="sourcePoint" />
            <mxPoint x="241" y="886.02" as="targetPoint" />
            <Array as="points">
              <mxPoint x="212" y="886.17" />
            </Array>
          </mxGeometry>
        </mxCell>
        <mxCell id="U8FTYkWrthfQKXrt1uKZ-65" style="edgeStyle=orthogonalEdgeStyle;rounded=0;orthogonalLoop=1;jettySize=auto;html=1;" edge="1" parent="1">
          <mxGeometry relative="1" as="geometry">
            <mxPoint x="307.5" y="886.17" as="sourcePoint" />
            <mxPoint x="366.5" y="886.02" as="targetPoint" />
            <Array as="points">
              <mxPoint x="337.5" y="886.17" />
            </Array>
          </mxGeometry>
        </mxCell>
        <mxCell id="U8FTYkWrthfQKXrt1uKZ-66" style="edgeStyle=orthogonalEdgeStyle;rounded=0;orthogonalLoop=1;jettySize=auto;html=1;" edge="1" parent="1">
          <mxGeometry relative="1" as="geometry">
            <mxPoint x="423.5" y="886.17" as="sourcePoint" />
            <mxPoint x="482.5" y="886.02" as="targetPoint" />
            <Array as="points">
              <mxPoint x="453.5" y="886.17" />
            </Array>
          </mxGeometry>
        </mxCell>
        <mxCell id="U8FTYkWrthfQKXrt1uKZ-67" style="edgeStyle=orthogonalEdgeStyle;rounded=0;orthogonalLoop=1;jettySize=auto;html=1;" edge="1" parent="1">
          <mxGeometry relative="1" as="geometry">
            <mxPoint x="542" y="886.0699999999999" as="sourcePoint" />
            <mxPoint x="601" y="885.92" as="targetPoint" />
            <Array as="points">
              <mxPoint x="572" y="886.0699999999999" />
            </Array>
          </mxGeometry>
        </mxCell>
        <mxCell id="U8FTYkWrthfQKXrt1uKZ-68" value="ANSWER" style="rounded=1;whiteSpace=wrap;html=1;fillColor=#fff2cc;strokeColor=#d6b656;opacity=70;" vertex="1" parent="1">
          <mxGeometry x="612" y="871.66" width="83" height="29" as="geometry" />
        </mxCell>
        <mxCell id="U8FTYkWrthfQKXrt1uKZ-70" value="100 k chunks" style="text;html=1;align=center;verticalAlign=middle;whiteSpace=wrap;rounded=0;" vertex="1" parent="1">
          <mxGeometry x="360" y="916.16" width="80.5" height="30" as="geometry" />
        </mxCell>
        <mxCell id="U8FTYkWrthfQKXrt1uKZ-71" value="10 sources" style="text;html=1;align=center;verticalAlign=middle;whiteSpace=wrap;rounded=0;" vertex="1" parent="1">
          <mxGeometry x="470.06" y="916.16" width="76.63" height="30" as="geometry" />
        </mxCell>
        <mxCell id="U8FTYkWrthfQKXrt1uKZ-72" value="BM25" style="text;html=1;align=center;verticalAlign=middle;whiteSpace=wrap;rounded=0;" vertex="1" parent="1">
          <mxGeometry x="246" y="916.16" width="60" height="30" as="geometry" />
        </mxCell>
      </root>
    </mxGraphModel>
  </diagram>
</mxfile>
